# xmcd
#
# Track frame offsets:
#	150
#	9940
#	19755
#	33817
#	46404
#	61278
#	75402
#	87403
#	102542
#	117115
#	130029
#	140414
#	153060
#	164942
#	177707
#	188039
#	200653
#	210471
#	221986
#
# Disc length: 3120 seconds
#
# Revision: 1
# Processed by: cddbd v1.5.2PL0 Copyright (c) Steve Scherf et al.
# Submitted via: FairStars CD Ripper 1.90
#
DISCID=070c2e13
DTITLE=Reader's Digest - Various Artists - God's Country - Disc 4
DYEAR=1998
DGENRE=Gospel
TTITLE0=Blessed Assurance
TTITLE1=Lord, I Need You Again Today
TTITLE2=When They Ring Them Golden Bells
TTITLE3=After The Sunrise
TTITLE4=Great Speckled Bird
TTITLE5=Sing To The Lord
TTITLE6=In The Sweet By-And-By
TTITLE7=(There'll Be) Peace In The Valley (For Me)
TTITLE8=Will The Circle Be Unbroken?
TTITLE9=Mama Sang A Song
TTITLE10=There's A Gold Mine In The Sky
TTITLE11=The Church In The Wildwood
TTITLE12=The Family Who Prays (Never Shall Part)
TTITLE13=Dreaming Of A Little Cabin
TTITLE14=Satisfied
TTITLE15=A Satisfied Mind
TTITLE16=I'm Using My Bible For A Road Map
TTITLE17=My God Is Real
TTITLE18=God Be With You ('Till We Meet Again)
EXTD=
EXTT0=
EXTT1=
EXTT2=
EXTT3=
EXTT4=
EXTT5=
EXTT6=
EXTT7=
EXTT8=
EXTT9=
EXTT10=
EXTT11=
EXTT12=
EXTT13=
EXTT14=
EXTT15=
EXTT16=
EXTT17=
EXTT18=
PLAYORDER=
